<svg xmlns="http://www.w3.org/2000/svg" viewBox="0 0 146 80">
  <path fill="#2E3192" d="M109.5,52.6l2.3-1.3c-0.9-1.5,0.2-5.5,4.6-8.2v4.7c0.2-6.8,8.5-10.3,8.5-10.3c-0.5,1.4,0.1,1.9,0.3,2.7
  c0.2,0.9,0.2,2.1,0.2,2.1l0.7-5.2c13.4-9.7,19.1-5.5,19.1-5.5c-4.4,7.5-25.1,19.5-35,21.1C110.2,52.6,109.5,52.6,109.5,52.6z
   M113.3,62.3c-0.4,2.1,3.7,3.9,3.7,3.9c-0.3-1.5,0.6-1.4,0.6-1.4l1.2,2.1c-0.1-0.3,0.3-1.9,0.3-1.9c1.3,4.1,3.1,1.8,7.5,4.3
  c0,0-1.3-3.4-1.4-3.5c1.9,4.2,6.4,3.2,12.6,3.4C131.1,60.6,118,61.1,113.3,62.3 M133.5,0c0,0-7,3.3-9.6,13.5c0,0-0.7-1.9,0.1-4.1
  c-3.4,3.7-4,7.7-4.1,15.4c-0.3-3-1.3-8,0.4-11.4c0,0-3.2,4.2-2.1,9.8c0.3,1.6,0.4,2.7,0.5,3.4c-0.1-0.8-0.5-2-1.4-3.6
  c-0.6-1.1-0.6-2.7-0.6-2.7s-7.4,5.5-6.6,16.3c0,0-0.5-1.3-0.8-3.4c0,0-2,3.8,0.2,8l-2.3,3.4h0.8C129.4,30.6,136.5,6.5,133.5,0
   M134.6,53.5c0,0,2.9-2.8,4.5-3.4c0,0-7.8-0.6-9.2,1.9c-0.2,0.7-1.2,1.8-1.1,1.7c0-0.3,0.8-2.9,1.1-3.1c0,0-3,2.5-5.5,2
  c-2.7-0.5-4.5,1.9-5.4,1.9c0,0,1.7-1.6,2-2.8c-1.8,0.8-5.3,1.7-6.1,5.4l0.2-2.5c0,0-0.9,0-1.6,2.8l-1.8,0.3v0.3
  c7.3,1.3,21.8,2.5,34.3-5.5C145.8,52.5,141,49.1,134.6,53.5 M50.9,31.3c3.1,0,5.6,2.5,5.6,5.6c0,3-2.5,5.6-5.6,5.6
  c-3.1,0-5.6-2.5-5.6-5.6C45.2,33.8,47.8,31.3,50.9,31.3 M50.9,40c1.8,0,3.2-1.5,3.2-3.2s-1.4-3.2-3.2-3.2s-3.2,1.4-3.2,3.2
  S49.1,40,50.9,40 M67.4,38.5c-0.6,0.9-1.6,1.5-2.7,1.5c-1.8,0-3.2-1.5-3.2-3.2s1.4-3.2,3.2-3.2c1,0,1.8,0.4,2.4,1.1l1.7-1.7
  c-1-1.1-2.5-1.8-4.1-1.8c-3.1,0-5.6,2.5-5.6,5.6c0,3,2.6,5.6,5.6,5.6c1.8,0,3.4-0.8,4.4-2.1L67.4,38.5z M44.5,47.4h-1.2l-4.2,4.5
  L35,47.4h-1.2V58h2.3v-6.4l3.1,3.4l3.1-3.4V58h2.3C44.5,58,44.5,47.4,44.5,47.4z M54.1,57.9v-2.3h-1.7v-6.1h1.7v-2.3h-5.7v2.3h1.7
  v6.1h-1.7v2.3H54.1z M67.3,52.7c0-2.9-2.4-5.3-5.4-5.3h-4V58h4C64.9,57.9,67.3,55.6,67.3,52.7 M65,52.7c0,1.7-1.4,3.1-3.1,3.1h-1.7
  v-6.1h1.7C63.6,49.6,65,51,65,52.7 M32.7,68.6c0-2.9-2.4-5.3-5.4-5.3h-4v10.6h4C30.2,73.8,32.7,71.5,32.7,68.6 M30.4,68.6
  c0,1.7-1.4,3.1-3.1,3.1h-1.7v-6.1h1.7C28.9,65.5,30.4,66.9,30.4,68.6 M103.4,68.6c0-2.9-2.4-5.3-5.4-5.3h-4v10.6h4
  C100.9,73.8,103.4,71.5,103.4,68.6 M101.1,68.6c0,1.7-1.4,3.1-3.1,3.1h-1.7v-6.1H98C99.7,65.5,101.1,66.9,101.1,68.6 M79.8,52.7
  c0-2.9-2.4-5.3-5.4-5.3h-4V58h4C77.4,57.9,79.8,55.6,79.8,52.7 M77.5,52.7c0,1.7-1.4,3.1-3.1,3.1h-1.7v-6.1h1.7
  C76.1,49.6,77.5,51,77.5,52.7 M93,47.4V58h2.5v-6.2c0-1.3,1.2-2.3,2.3-2.3c1.1,0,2.3,0.8,2.3,2.8V58h2.5v-5.8c0-3-2-5.1-4.5-5.1
  c-1.3,0-2.6,0.6-3.4,1.6L93,47.4z M82.8,57.9h6.9v-2.3h-4.6v-1.9h3.2v-2.3h-3.2v-1.9h3.6l1-2.3h-6.9V57.9z M35.7,73.8h6.9v-2.3H38
  v-1.9h3.2v-2.3H38v-1.9h3.6l1-2.3h-6.9V73.8z M52.6,70.9c1.3-0.7,2.2-2,2.2-3.6c0-2.2-1.9-4.1-4.1-4.1h-4.6v10.6h2.3v-2.5H50
  l2.5,2.5h3.2L52.6,70.9z M52.5,67.3c0,1-0.8,1.8-1.8,1.8h-2.3v-3.6h2.3C51.7,65.5,52.5,66.3,52.5,67.3 M40.4,39.1
  c1.3-0.7,2.2-2,2.2-3.6c0-2.2-1.9-4.1-4.1-4.1h-4.7V42h2.3v-2.5h1.6l2.5,2.5h3.2L40.4,39.1z M40.3,35.6c0,1-0.8,1.8-1.8,1.8h-2.3
  v-3.6h2.3C39.5,33.8,40.3,34.6,40.3,35.6 M58.6,73.8h5.9l1-2.3h-4.6v-8.3h-2.3V73.8z M6.9,69.7l-5.1-6.4H0v10.6h2.3v-6.4l5.1,6.4
  h1.8V63.3H6.9V69.7z M70.1,71.4h4.6v2.5h2.3v-6.3c0-2.5-2.1-4.5-4.6-4.5s-4.6,2-4.6,4.5v6.3h2.3C70.1,73.8,70.1,71.4,70.1,71.4z
   M74.6,69.2h-4.6v-1.6c0-1.2,1-2.3,2.3-2.3c1.3,0,2.3,1,2.3,2.3C74.6,67.6,74.6,69.2,74.6,69.2z M80.6,63.3v10.6h2.5v-6.2
  c0-1.3,1.2-2.3,2.3-2.3s2.3,0.8,2.3,2.8v5.7h2.5v-5.8c0-3-2-5.1-4.5-5.1c-1.3,0-2.6,0.6-3.4,1.6L80.6,63.3z M13,73.8h6.9v-2.3h-4.6
  v-1.9h3.2v-2.3h-3.2v-1.9h3.6l1-2.3H13V73.8z M118.2,78.4l-0.5-2.6c1.1,4.2,3.4,4.1,6,4.2c0,0-2.1-8.6-13-11.4c0,0-0.3,2.9,0.7,4.7
  v-2.2c0.7,4.1,2.4,3.3,4,5.8l-0.4-3.9C115.5,77.2,118.2,78.4,118.2,78.4"/>
</svg>
